name rise31.4854peak64.571fall78.6902.mot
datacolumns 19
datarows 26
range 11.99662300000000 12.03829000000000
endheader
time	ground_force1_vx	ground_force1_vy	ground_force1_vz	ground_force1_px	ground_force1_py	ground_force1_pz	ground_force2_vx	ground_force2_vy	ground_force2_vz	ground_force2_px	ground_force2_py	ground_force2_pz	ground_torque1_x	ground_torque1_y	ground_torque1_z	ground_torque2_x	ground_torque2_y	ground_torque2_z	
11.99662300000000	-8.06662400000000	40.90955800000000	-10.74093700000000	0.30418100000000	0.00000000000000	0.07252100000000	-44.86123600000000	772.39359899999999	-55.40278800000000	0.11206700000000	0.00000000000000	-0.10214600000000	0.00000000000000	-6.84985500000000	0.00000000000000	0.00000000000000	-20.29148900000000	0.00000000000000	
11.99829100000000	-8.83331300000000	48.03626600000000	-12.11230600000000	0.31009000000000	0.00000000000000	0.07345200000000	-45.19356600000000	769.77038700000003	-54.94790400000000	0.11150100000000	0.00000000000000	-0.10202800000000	0.00000000000000	-7.81979500000000	0.00000000000000	0.00000000000000	-20.19903100000000	0.00000000000000	
11.99995400000000	-9.44346700000000	55.27551800000000	-13.37066300000000	0.31543400000000	0.00000000000000	0.07429800000000	-45.54677600000000	767.06118100000003	-54.47440800000000	0.11094000000000	0.00000000000000	-0.10190400000000	0.00000000000000	-8.73403000000000	0.00000000000000	0.00000000000000	-20.10995900000000	0.00000000000000	
12.00162000000000	-9.87496700000000	62.53582000000000	-14.48762600000000	0.32030400000000	0.00000000000000	0.07507300000000	-45.92116400000000	764.26427400000000	-53.98234200000000	0.11038300000000	0.00000000000000	-0.10177700000000	0.00000000000000	-9.57221200000000	0.00000000000000	0.00000000000000	-20.02437700000000	0.00000000000000	
12.00328500000000	-10.11473400000000	69.74739300000000	-15.44411700000000	0.32477000000000	0.00000000000000	0.07578900000000	-46.31692700000000	761.37785199999996	-53.47175800000000	0.10983200000000	0.00000000000000	-0.10164500000000	0.00000000000000	-10.31981300000000	0.00000000000000	0.00000000000000	-19.94236800000000	0.00000000000000	
12.00495500000000	-10.15858200000000	76.86439799999999	-16.23052300000000	0.32889100000000	0.00000000000000	0.07645300000000	-46.73415600000000	758.40000099999997	-52.94272000000000	0.10928700000000	0.00000000000000	-0.10150800000000	0.00000000000000	-10.96841400000000	0.00000000000000	0.00000000000000	-19.86399000000000	0.00000000000000	
12.00662200000000	-10.01037300000000	83.86482500000000	-16.84606500000000	0.33271300000000	0.00000000000000	0.07707200000000	-47.17283500000000	755.32871000000000	-52.39530300000000	0.10874600000000	0.00000000000000	-0.10136700000000	0.00000000000000	-11.51543700000000	0.00000000000000	0.00000000000000	-19.78927800000000	0.00000000000000	
12.00829100000000	-9.68066000000000	90.74842300000000	-17.29754600000000	0.33627500000000	0.00000000000000	0.07765300000000	-47.63283600000000	752.16187100000002	-51.82959300000000	0.10821200000000	0.00000000000000	-0.10122100000000	0.00000000000000	-11.96345000000000	0.00000000000000	0.00000000000000	-19.71823900000000	0.00000000000000	
12.00996000000000	-9.18501000000000	97.53321000000000	-17.59769300000000	0.33960700000000	0.00000000000000	0.07820000000000	-48.11391900000000	748.89729100000000	-51.24568900000000	0.10768400000000	0.00000000000000	-0.10107100000000	0.00000000000000	-12.31916300000000	0.00000000000000	0.00000000000000	-19.65085800000000	0.00000000000000	
12.01164400000000	-8.54221600000000	104.25106599999999	-17.76330600000000	0.34273600000000	0.00000000000000	0.07871700000000	-48.61572300000000	745.53269499999999	-50.64370500000000	0.10716200000000	0.00000000000000	-0.10091600000000	0.00000000000000	-12.59226000000000	0.00000000000000	0.00000000000000	-19.58709400000000	0.00000000000000	
12.01328500000000	-7.77254900000000	110.94297000000000	-17.81339800000000	0.34568500000000	0.00000000000000	0.07920700000000	-49.13777100000000	742.06573200000003	-50.02377000000000	0.10664700000000	0.00000000000000	-0.10075600000000	0.00000000000000	-12.79418900000000	0.00000000000000	0.00000000000000	-19.52687700000000	0.00000000000000	
12.01495600000000	-6.89619600000000	117.65429500000000	-17.76747300000000	0.34847100000000	0.00000000000000	0.07967400000000	-49.67946700000000	738.49398199999996	-49.38602700000000	0.10613900000000	0.00000000000000	-0.10059200000000	0.00000000000000	-12.93701200000000	0.00000000000000	0.00000000000000	-19.47011400000000	0.00000000000000	
12.01662400000000	-5.93197100000000	124.43055600000000	-17.64406700000000	0.35111200000000	0.00000000000000	0.08011900000000	-50.24009100000000	734.81496800000002	-48.73063900000000	0.10563900000000	0.00000000000000	-0.10042300000000	0.00000000000000	-13.03241100000000	0.00000000000000	0.00000000000000	-19.41668400000000	0.00000000000000	
12.01829000000000	-4.89635500000000	131.31385100000000	-17.45961000000000	0.35362000000000	0.00000000000000	0.08054500000000	-50.81880300000000	731.02615800000001	-48.05778400000000	0.10514500000000	0.00000000000000	-0.10024900000000	0.00000000000000	-13.09088800000000	0.00000000000000	0.00000000000000	-19.36644100000000	0.00000000000000	
12.01999700000000	-3.80288300000000	138.34014500000001	-17.22765000000000	0.35600700000000	0.00000000000000	0.08095300000000	-51.41463900000000	727.12498100000005	-47.36766200000000	0.10466000000000	0.00000000000000	-0.10007000000000	0.00000000000000	-13.12119700000000	0.00000000000000	0.00000000000000	-19.31921100000000	0.00000000000000	
12.02162700000000	-2.66186200000000	145.53747500000000	-16.95843100000000	0.35828200000000	0.00000000000000	0.08134500000000	-52.02651700000000	723.10883100000001	-46.66049400000000	0.10418300000000	0.00000000000000	-0.09988700000000	0.00000000000000	-13.13001000000000	0.00000000000000	0.00000000000000	-19.27479700000000	0.00000000000000	
12.02328900000000	-1.48038200000000	152.92502400000001	-16.65879300000000	0.36045500000000	0.00000000000000	0.08172200000000	-52.65323100000000	718.97508200000004	-45.93652300000000	0.10371400000000	0.00000000000000	-0.09969900000000	0.00000000000000	-13.12179800000000	0.00000000000000	0.00000000000000	-19.23297600000000	0.00000000000000	
12.02496800000000	-0.26256800000000	160.51299000000000	-16.33234700000000	0.36253200000000	0.00000000000000	0.08208600000000	-53.29346000000000	714.72109699999999	-45.19601500000000	0.10325400000000	0.00000000000000	-0.09950700000000	0.00000000000000	-13.09890100000000	0.00000000000000	0.00000000000000	-19.19349900000000	0.00000000000000	
12.02662100000000	0.98999200000000	168.30311000000000	-15.97985700000000	0.36452000000000	0.00000000000000	0.08243700000000	-53.94576300000000	710.34423900000002	-44.43926200000000	0.10280400000000	0.00000000000000	-0.09930900000000	0.00000000000000	-13.06175200000000	0.00000000000000	0.00000000000000	-19.15609500000000	0.00000000000000	
12.02828700000000	2.27770200000000	176.28968399999999	-15.59977000000000	0.36642400000000	0.00000000000000	0.08277700000000	-54.60858700000000	705.84188700000004	-43.66658300000000	0.10236200000000	0.00000000000000	-0.09910700000000	0.00000000000000	-13.00919700000000	0.00000000000000	0.00000000000000	-19.12046900000000	0.00000000000000	
12.02995900000000	3.60236600000000	184.46092100000001	-15.18881800000000	0.36824800000000	0.00000000000000	0.08310500000000	-55.28026900000000	701.21144800000002	-42.87832300000000	0.10193000000000	0.00000000000000	-0.09890100000000	0.00000000000000	-12.93888400000000	0.00000000000000	0.00000000000000	-19.08630300000000	0.00000000000000	
12.03163800000000	4.96659900000000	192.80045500000000	-14.74264300000000	0.36999700000000	0.00000000000000	0.08342300000000	-55.95903800000000	696.45037000000002	-42.07485700000000	0.10150700000000	0.00000000000000	-0.09868900000000	0.00000000000000	-12.84767400000000	0.00000000000000	0.00000000000000	-19.05326100000000	0.00000000000000	
12.03329200000000	6.37327900000000	201.28889000000001	-14.25638900000000	0.37167300000000	0.00000000000000	0.08373200000000	-56.64302300000000	691.55616199999997	-41.25659000000000	0.10109500000000	0.00000000000000	-0.09847300000000	0.00000000000000	-12.73203200000000	0.00000000000000	0.00000000000000	-19.02098400000000	0.00000000000000	
12.03495600000000	7.82508000000000	209.90524900000000	-13.72522600000000	0.37328000000000	0.00000000000000	0.08403200000000	-57.33025500000000	686.52640499999995	-40.42395700000000	0.10069300000000	0.00000000000000	-0.09825200000000	0.00000000000000	-12.58838700000000	0.00000000000000	0.00000000000000	-18.98909800000000	0.00000000000000	
12.03662100000000	9.32410400000000	218.62823700000001	-13.14477500000000	0.37482000000000	0.00000000000000	0.08432300000000	-58.01867200000000	681.35877000000005	-39.57742500000000	0.10030100000000	0.00000000000000	-0.09802700000000	0.00000000000000	-12.41343000000000	0.00000000000000	0.00000000000000	-18.95720900000000	0.00000000000000	
12.03829000000000	10.87161500000000	227.43728300000001	-12.51143600000000	0.37629500000000	0.00000000000000	0.08460500000000	-58.70613100000000	676.05103799999995	-38.71749100000000	0.09991900000000	0.00000000000000	-0.09779700000000	0.00000000000000	-12.20433900000000	0.00000000000000	0.00000000000000	-18.92490900000000	0.00000000000000	
